<?xml version="1.0" standalone="no"?>
<!DOCTYPE svg PUBLIC "-//W3C//DTD SVG 20010904//EN"
 "http://www.w3.org/TR/2001/REC-SVG-20010904/DTD/svg10.dtd">
<svg version="1.0" xmlns="http://www.w3.org/2000/svg"
 width="700.000000pt" height="700.000000pt" viewBox="0 0 700.000000 700.000000"
 preserveAspectRatio="xMidYMid meet">
<metadata>
Created by potrace 1.14, written by Peter Selinger 2001-2017
</metadata>
<g transform="translate(0.000000,700.000000) scale(0.100000,-0.100000)"
fill="#000000" stroke="none">
<path d="M5175 3989 c-134 -20 -273 -117 -329 -228 -15 -28 -31 -51 -36 -51
-6 0 -10 53 -10 135 l0 135 -200 0 -200 0 0 -765 0 -765 210 0 209 0 3 488 3
487 33 67 c52 105 125 149 251 149 88 1 139 -19 193 -72 78 -78 78 -78 78
-636 l0 -483 216 0 216 0 -4 543 c-4 517 -5 546 -26 620 -52 188 -166 309
-341 361 -69 20 -189 27 -266 15z"/>
<path d="M1080 3965 c0 -3 96 -173 213 -379 l214 -373 -220 -369 c-120 -203
-221 -375 -224 -381 -4 -10 41 -13 208 -13 l214 0 140 252 c77 138 145 257
150 265 8 11 46 -48 160 -248 82 -143 154 -263 160 -265 6 -3 102 -3 213 -2
l202 3 -225 378 c-200 337 -224 381 -213 400 6 12 101 177 210 366 110 189
202 350 205 358 4 11 -31 13 -207 11 l-211 -3 -142 -263 c-109 -202 -144 -259
-152 -248 -5 8 -68 127 -140 265 l-130 250 -212 1 c-117 0 -213 -2 -213 -5z"/>
<path d="M2665 3903 c128 -358 517 -1482 517 -1498 1 -37 -54 -135 -90 -163
-32 -25 -43 -27 -116 -25 -45 1 -92 3 -105 5 -22 3 -26 -6 -68 -146 -35 -114
-43 -150 -33 -156 60 -37 332 -47 435 -16 173 52 291 164 364 348 32 80 601
1701 601 1712 0 3 -98 6 -218 6 l-218 0 -160 -560 c-87 -308 -163 -560 -169
-560 -5 0 -75 231 -154 513 -80 281 -151 533 -159 560 l-14 47 -219 0 -219 0
25 -67z"/>
</g>
</svg>
