<?xml version="1.0" standalone="no"?>
<!DOCTYPE svg PUBLIC "-//W3C//DTD SVG 20010904//EN"
 "http://www.w3.org/TR/2001/REC-SVG-20010904/DTD/svg10.dtd">
<svg version="1.0" xmlns="http://www.w3.org/2000/svg"
 width="700.000000pt" height="700.000000pt" viewBox="0 0 700.000000 700.000000"
 preserveAspectRatio="xMidYMid meet">
<metadata>
Created by potrace 1.14, written by Peter Selinger 2001-2017
</metadata>
<g transform="translate(0.000000,700.000000) scale(0.100000,-0.100000)"
fill="#000000" stroke="none">
<path d="M4975 4038 c-3 -7 -4 -240 -3 -518 l3 -505 58 -3 57 -3 0 275 0 275
53 40 c28 21 69 46 91 55 49 20 128 21 166 1 57 -29 60 -47 60 -344 0 -148 3
-276 6 -285 5 -12 20 -16 60 -16 l54 0 0 300 c0 248 -3 307 -15 337 -34 82
-96 117 -205 117 -85 0 -123 -14 -211 -74 l-59 -40 -2 198 -3 197 -53 3 c-36
2 -54 -1 -57 -10z"/>
<path d="M2964 3996 c-3 -9 -9 -66 -12 -128 l-7 -113 -73 -3 -73 -3 3 -42 3
-42 67 -3 67 -3 3 -272 c3 -296 6 -310 61 -351 23 -17 46 -22 118 -25 127 -4
139 0 139 49 l0 40 -71 0 c-39 0 -79 5 -89 10 -33 17 -40 76 -40 317 l0 232
103 3 102 3 3 42 3 42 -103 3 -103 3 -5 125 -5 125 -43 3 c-31 2 -44 -1 -48
-12z"/>
<path d="M2375 3753 c-27 -8 -78 -35 -113 -59 -35 -24 -65 -44 -67 -44 -3 0
-5 23 -5 50 l0 51 -57 -3 -58 -3 -3 -345 c-1 -190 0 -355 3 -368 5 -21 10 -23
63 -20 l57 3 3 275 3 275 45 33 c101 75 200 93 265 49 54 -36 58 -61 58 -365
l1 -273 58 3 57 3 3 283 c1 179 -2 298 -8 323 -16 60 -72 116 -133 134 -63 19
-107 18 -172 -2z"/>
<path d="M3632 3759 c-101 -20 -191 -94 -241 -199 -24 -50 -26 -66 -26 -180 0
-118 2 -128 29 -185 64 -129 172 -196 317 -197 121 -1 179 22 257 97 70 69 72
80 14 104 -26 11 -31 8 -79 -38 -31 -29 -67 -54 -90 -60 -58 -16 -143 -13
-188 8 -78 35 -145 137 -145 220 0 21 4 21 273 21 149 0 278 4 286 9 19 12 8
132 -19 203 -57 153 -212 232 -388 197z m198 -113 c52 -34 91 -103 93 -163 l2
-48 -214 -3 c-118 -1 -218 1 -223 6 -12 12 16 106 45 150 16 25 45 49 79 67
45 23 62 26 116 22 45 -3 73 -12 102 -31z"/>
<path d="M4431 3755 c-71 -20 -110 -45 -165 -106 -69 -76 -90 -141 -91 -274 0
-99 3 -116 27 -167 69 -148 164 -209 325 -209 109 0 200 46 264 134 37 52 37
63 -6 77 -34 11 -35 11 -92 -48 -48 -49 -67 -61 -108 -70 -65 -13 -134 -2
-184 31 -154 102 -142 445 19 527 96 49 177 33 255 -51 l46 -49 45 11 c24 6
47 15 49 19 7 11 -67 103 -104 129 -75 53 -187 72 -280 46z"/>
<path d="M552 3747 c-8 -9 23 -57 119 -187 71 -96 129 -175 129 -176 0 -1 -63
-82 -139 -180 -77 -98 -137 -182 -135 -186 3 -4 29 -8 59 -8 l54 0 108 144
c59 80 110 145 113 145 3 1 53 -64 110 -144 l105 -144 73 -1 c88 0 95 -19 -74
209 -68 93 -124 174 -124 181 0 6 54 85 120 175 66 89 120 165 120 167 0 11
-82 18 -99 8 -11 -5 -61 -68 -112 -140 -51 -71 -95 -130 -98 -130 -3 0 -49 59
-101 131 -52 72 -103 135 -112 140 -25 13 -104 11 -116 -4z"/>
<path d="M1260 3743 c0 -4 63 -166 140 -359 151 -378 149 -370 108 -445 -29
-53 -64 -69 -147 -69 l-71 0 0 -45 0 -45 83 0 c103 0 173 29 211 87 25 37 346
846 346 870 0 9 -16 13 -49 13 l-48 0 -103 -269 c-104 -273 -115 -299 -124
-290 -4 4 -121 304 -198 507 l-19 52 -65 0 c-35 0 -64 -3 -64 -7z"/>
<path d="M5740 3740 c0 -5 57 -86 126 -180 69 -94 124 -176 121 -183 -2 -7
-64 -88 -136 -180 -72 -92 -131 -172 -131 -177 0 -6 24 -10 54 -10 l54 0 108
144 c60 80 114 144 119 142 6 -1 57 -66 113 -144 l104 -142 69 0 c85 0 91 -18
-77 209 -68 93 -124 174 -124 181 0 6 54 85 120 175 66 89 120 165 120 169 0
3 -24 6 -52 6 l-53 0 -95 -132 c-52 -72 -99 -133 -105 -134 -5 -2 -54 57 -109
131 l-98 135 -64 0 c-35 0 -64 -4 -64 -10z"/>
</g>
</svg>
