<?xml version="1.0" standalone="no"?>
<!DOCTYPE svg PUBLIC "-//W3C//DTD SVG 20010904//EN"
 "http://www.w3.org/TR/2001/REC-SVG-20010904/DTD/svg10.dtd">
<svg version="1.0" xmlns="http://www.w3.org/2000/svg"
 width="700.000000pt" height="700.000000pt" viewBox="0 0 700.000000 700.000000"
 preserveAspectRatio="xMidYMid meet">
<metadata>
Created by potrace 1.14, written by Peter Selinger 2001-2017
</metadata>
<g transform="translate(0.000000,700.000000) scale(0.100000,-0.100000)"
fill="#000000" stroke="none">
<path d="M0 3500 l0 -3500 3500 0 3500 0 0 3500 0 3500 -3500 0 -3500 0 0
-3500z m5253 1688 c29 -340 34 -1404 8 -1728 -46 -561 -118 -910 -237 -1140
-91 -177 -218 -286 -354 -306 -31 -5 -57 -17 -84 -41 -21 -20 -68 -49 -104
-66 -221 -103 -489 13 -816 353 -269 281 -559 699 -908 1309 l-128 225 -2
-865 -3 -864 -142 -3 -143 -3 0 -64 0 -65 -170 0 -170 0 2 1463 c3 1624 -3
1485 69 1556 46 47 86 63 162 69 61 4 69 8 82 31 52 101 209 142 323 85 29
-14 61 -39 73 -56 12 -16 99 -185 194 -376 520 -1041 988 -1776 1353 -2124 96
-92 202 -172 213 -161 4 4 19 46 33 93 117 389 168 1078 146 1960 -6 233 -13
427 -15 430 -2 3 -5 48 -6 100 l-3 95 139 10 140 10 -3 61 -4 62 124 9 c67 6
146 11 174 11 l51 2 6 -72z"/>
</g>
</svg>
