<?xml version="1.0" standalone="no"?>
<!DOCTYPE svg PUBLIC "-//W3C//DTD SVG 20010904//EN"
 "http://www.w3.org/TR/2001/REC-SVG-20010904/DTD/svg10.dtd">
<svg version="1.0" xmlns="http://www.w3.org/2000/svg"
 width="700.000000pt" height="700.000000pt" viewBox="0 0 700.000000 700.000000"
 preserveAspectRatio="xMidYMid meet">
<metadata>
Created by potrace 1.14, written by Peter Selinger 2001-2017
</metadata>
<g transform="translate(0.000000,700.000000) scale(0.100000,-0.100000)"
fill="#000000" stroke="none">
<path d="M3565 5235 c-114 -21 -203 -57 -305 -119 -176 -110 -296 -264 -371
-478 -9 -27 -19 -38 -34 -38 -11 -1 -441 -2 -955 -4 l-935 -3 -92 -26 c-342
-98 -590 -379 -639 -725 -9 -66 -5 -602 5 -659 42 -232 178 -444 367 -574 85
-58 221 -116 310 -133 11 -2 39 -7 64 -12 25 -4 308 -8 630 -10 322 -1 591 -2
598 -3 6 0 12 -9 12 -19 0 -26 43 -148 72 -207 55 -108 158 -228 263 -305 84
-62 227 -129 310 -146 11 -2 31 -7 45 -11 14 -4 565 -9 1225 -10 990 -2 1212
0 1270 11 395 79 680 393 714 786 7 85 6 519 -2 567 -5 30 -3 32 42 43 55 14
181 75 247 120 103 72 214 202 277 326 76 150 93 264 92 599 -2 277 -7 327
-41 433 -101 308 -338 523 -654 593 -81 18 -146 18 -1265 18 -932 -1 -1195 -4
-1250 -14z m2477 -174 c247 -53 442 -230 526 -476 l27 -80 0 -320 0 -320 -27
-80 c-39 -114 -92 -198 -178 -286 -61 -61 -94 -85 -170 -122 -145 -71 -142
-71 -178 7 -118 253 -349 436 -617 490 -16 4 -41 9 -55 12 -14 2 -293 5 -620
6 l-595 0 -31 97 c-95 287 -306 490 -601 577 -77 23 -110 26 -272 30 -102 2
-186 5 -188 7 -7 8 72 156 105 197 116 145 275 240 443 264 114 16 2354 14
2431 -3z m-3197 -642 c2 -3 5 -128 6 -278 l2 -274 -39 -12 c-104 -32 -239
-108 -328 -186 -109 -95 -226 -289 -260 -429 -25 -105 -28 -153 -29 -388 l0
-222 -586 0 c-544 1 -592 2 -669 20 -226 54 -407 212 -491 430 -16 41 -32 91
-36 110 -14 69 -13 601 1 670 57 274 271 492 537 545 40 8 88 16 107 17 56 5
1780 1 1785 -3z m596 -13 c230 -48 432 -227 509 -452 11 -32 20 -58 20 -60 0
-1 -211 -2 -470 -2 l-470 0 -1 22 c-1 11 -2 128 -3 259 -1 177 2 240 11 245
22 13 329 3 404 -12z m547 -900 l-3 -210 -140 -1 c-222 0 -320 17 -440 78
-125 63 -239 177 -305 306 l-19 38 455 0 454 0 -2 -211z m1437 190 c119 -33
223 -94 310 -181 78 -78 163 -204 146 -215 -7 -4 -1691 -5 -1711 -1 -4 1 -5
343 -1 402 1 15 56 16 599 14 526 -2 604 -4 657 -19z m-2515 -19 c0 -7 14 -39
32 -72 122 -233 320 -393 562 -455 101 -25 128 -28 308 -29 l147 -1 -15 -42
c-44 -126 -171 -276 -294 -348 -37 -22 -103 -52 -146 -67 l-79 -27 -526 -4
-527 -3 0 223 c-1 308 20 404 119 553 83 123 182 204 323 261 79 32 96 34 96
11z m3034 -579 c8 -30 1 -574 -8 -612 -52 -221 -199 -406 -396 -498 -20 -9
-71 -27 -115 -39 l-80 -23 -1185 0 c-1095 1 -1190 2 -1250 18 -70 19 -183 66
-188 78 -2 4 -8 8 -14 8 -14 0 -118 82 -150 118 -41 47 -93 123 -111 162 -33
72 -56 140 -49 141 4 1 225 2 492 4 267 1 505 5 530 9 80 13 213 57 280 93
203 110 360 296 426 506 l18 57 897 0 897 0 6 -22z"/>
</g>
</svg>
