<svg width="100" height="100" viewBox="0 0 100 100" fill="none" xmlns="http://www.w3.org/2000/svg">
<rect width="100" height="100" fill="url(#paint0_linear_766_4)"/>
<path d="M29.2154 69L50 33L70.7846 69H29.2154Z" stroke="white"/>
<path d="M17.2 56.58C17.3067 56.74 17.3533 56.8533 17.34 56.92C17.3267 56.9733 17.2533 57 17.12 57H15.72C15.52 57 15.38 56.94 15.3 56.82L12.48 52.94C12.4133 52.8467 12.3533 52.8 12.3 52.8C12.26 52.7867 12.2067 52.8333 12.14 52.94L9.2 56.82C9.12 56.94 8.98 57 8.78 57H7.84C7.70667 57 7.61333 56.9667 7.56 56.9C7.50667 56.82 7.55333 56.6933 7.7 56.52L11.34 51.88C11.4067 51.7867 11.4333 51.7133 11.42 51.66C11.42 51.5933 11.3933 51.52 11.34 51.44L7.84 46.72C7.8 46.6533 7.79333 46.5867 7.82 46.52C7.86 46.44 7.92667 46.4 8.02 46.4H9.36C9.46667 46.4 9.54 46.4133 9.58 46.44C9.63333 46.4667 9.68667 46.5133 9.74 46.58L12.44 50.24C12.5467 50.3867 12.6467 50.3867 12.74 50.24L15.36 46.58C15.4133 46.5133 15.4667 46.4667 15.52 46.44C15.5733 46.4133 15.6533 46.4 15.76 46.4H16.8C16.92 46.4 16.98 46.4333 16.98 46.5C16.9933 46.5533 16.9733 46.6133 16.92 46.68L13.54 51.2C13.4733 51.28 13.44 51.3533 13.44 51.42C13.4533 51.4867 13.4867 51.56 13.54 51.64L17.2 56.58ZM19.6473 60.3C19.2607 60.3 18.9607 60.2867 18.7473 60.26C18.534 60.2333 18.4273 60.16 18.4273 60.04V59.26C18.4273 59.1667 18.4607 59.1 18.5273 59.06C18.6073 59.02 18.7607 59 18.9873 59H20.2473C20.5407 59 20.8073 58.9 21.0473 58.7C21.2873 58.5133 21.4873 58.2733 21.6473 57.98C21.8073 57.6867 21.914 57.3867 21.9673 57.08C22.0207 56.7867 22.0007 56.5267 21.9073 56.3L18.0873 46.74C18.0607 46.6467 18.0607 46.5667 18.0873 46.5C18.1273 46.4333 18.2007 46.4 18.3073 46.4H19.5473C19.6273 46.4 19.694 46.42 19.7473 46.46C19.8007 46.4867 19.8407 46.54 19.8673 46.62L22.8473 54.38C22.9007 54.5 22.9607 54.56 23.0273 54.56C23.094 54.56 23.154 54.48 23.2073 54.32L26.1473 46.62C26.1873 46.54 26.2273 46.4867 26.2673 46.46C26.3073 46.42 26.3607 46.4 26.4273 46.4H27.3673C27.4607 46.4 27.5273 46.4333 27.5673 46.5C27.6073 46.5533 27.6073 46.62 27.5673 46.7L23.1673 57.94C22.9807 58.42 22.774 58.8133 22.5473 59.12C22.3207 59.4267 22.0607 59.66 21.7673 59.82C21.4873 59.9933 21.174 60.1133 20.8273 60.18C20.4807 60.26 20.0873 60.3 19.6473 60.3ZM29.9528 57C29.7661 57 29.6728 56.9133 29.6728 56.74V46.66C29.6728 46.4867 29.7461 46.4 29.8928 46.4H31.0928C31.2395 46.4 31.3128 46.4733 31.3128 46.62V47.78C31.3128 47.8467 31.3261 47.8867 31.3528 47.9C31.3795 47.9133 31.4261 47.8933 31.4928 47.84C31.9328 47.4933 32.3395 47.2 32.7128 46.96C33.0995 46.7067 33.4928 46.52 33.8928 46.4C34.2928 46.2667 34.7195 46.2 35.1728 46.2C36.2128 46.2 37.0061 46.48 37.5528 47.04C38.1128 47.6 38.3928 48.3267 38.3928 49.22V56.68C38.3928 56.8933 38.2928 57 38.0928 57H36.9728C36.8795 57 36.8128 56.98 36.7728 56.94C36.7328 56.8867 36.7128 56.82 36.7128 56.74V49.6C36.7128 48.9467 36.5461 48.44 36.2128 48.08C35.8795 47.7067 35.3528 47.52 34.6328 47.52C34.2461 47.52 33.8795 47.5867 33.5328 47.72C33.1995 47.84 32.8595 48.02 32.5128 48.26C32.1661 48.4867 31.7795 48.78 31.3528 49.14V56.7C31.3528 56.9 31.2528 57 31.0528 57H29.9528ZM43.8986 47.66C43.7919 47.66 43.7386 47.7133 43.7386 47.82V54.16C43.7386 54.7867 43.8453 55.2067 44.0586 55.42C44.2719 55.6333 44.5919 55.74 45.0186 55.74H46.3986C46.4653 55.74 46.5186 55.76 46.5586 55.8C46.5986 55.8267 46.6186 55.88 46.6186 55.96L46.5986 56.64C46.5986 56.7733 46.5186 56.86 46.3586 56.9C46.2253 56.9267 46.0319 56.9467 45.7786 56.96C45.5386 56.9733 45.2986 56.9867 45.0586 57C44.8319 57 44.6386 57 44.4786 57C43.6386 57 43.0253 56.8067 42.6386 56.42C42.2519 56.02 42.0586 55.3933 42.0586 54.54V47.86C42.0586 47.7267 41.9919 47.66 41.8586 47.66H40.2586C40.1119 47.66 40.0386 47.5867 40.0386 47.44V46.6C40.0386 46.4667 40.1053 46.4 40.2386 46.4H41.9386C42.0319 46.4 42.0786 46.3467 42.0786 46.24L42.2986 43.06C42.3119 42.8867 42.3853 42.8 42.5186 42.8H43.5186C43.6786 42.8 43.7586 42.8933 43.7586 43.08V46.24C43.7586 46.3467 43.8119 46.4 43.9186 46.4H46.4386C46.5853 46.4 46.6586 46.46 46.6586 46.58V47.44C46.6586 47.5867 46.5853 47.66 46.4386 47.66H43.8986ZM49.6991 52.36C49.6991 53.0133 49.8524 53.6133 50.1591 54.16C50.4791 54.6933 50.8991 55.12 51.4191 55.44C51.9524 55.76 52.5457 55.92 53.1991 55.92C53.8657 55.92 54.4591 55.7867 54.9791 55.52C55.4991 55.24 55.9457 54.82 56.3191 54.26C56.3724 54.2067 56.4124 54.18 56.4391 54.18C56.4791 54.1667 56.5324 54.1733 56.5991 54.2L57.4391 54.62C57.5591 54.6867 57.5724 54.78 57.4791 54.9C57.1191 55.4333 56.7191 55.8733 56.2791 56.22C55.8524 56.5533 55.3724 56.8 54.8391 56.96C54.3057 57.12 53.7057 57.2 53.0391 57.2C52.0524 57.2 51.1791 56.9733 50.4191 56.52C49.6591 56.0667 49.0591 55.4333 48.6191 54.62C48.1791 53.8067 47.9591 52.8667 47.9591 51.8C47.9591 50.64 48.1791 49.6467 48.6191 48.82C49.0724 47.98 49.6791 47.3333 50.4391 46.88C51.2124 46.4267 52.0724 46.2 53.0191 46.2C53.9924 46.2 54.8391 46.4133 55.5591 46.84C56.2791 47.2667 56.8391 47.8867 57.2391 48.7C57.6391 49.5133 57.8391 50.4933 57.8391 51.64C57.8391 51.7333 57.8257 51.8267 57.7991 51.92C57.7857 52.0133 57.6991 52.06 57.5391 52.06H49.8791C49.8257 52.06 49.7791 52.0933 49.7391 52.16C49.7124 52.2133 49.6991 52.28 49.6991 52.36ZM55.8191 50.96C55.9657 50.96 56.0591 50.9467 56.0991 50.92C56.1391 50.88 56.1591 50.8 56.1591 50.68C56.1591 50.1067 56.0324 49.5733 55.7791 49.08C55.5391 48.5733 55.1857 48.1667 54.7191 47.86C54.2657 47.5533 53.7124 47.4 53.0591 47.4C52.3391 47.4 51.7324 47.5733 51.2391 47.92C50.7457 48.2533 50.3724 48.6933 50.1191 49.24C49.8657 49.7867 49.7391 50.36 49.7391 50.96H55.8191ZM64.6002 46.2C65.2935 46.2 65.9002 46.3133 66.4202 46.54C66.9535 46.7533 67.4068 47.0533 67.7802 47.44C68.1668 47.8133 68.4868 48.2267 68.7402 48.68C68.8202 48.84 68.7868 48.94 68.6402 48.98L67.5402 49.24C67.4468 49.28 67.3602 49.24 67.2802 49.12C67.0135 48.7333 66.7468 48.42 66.4802 48.18C66.2268 47.94 65.9535 47.76 65.6602 47.64C65.3668 47.5067 65.0468 47.44 64.7002 47.44C64.0202 47.44 63.4202 47.6133 62.9002 47.96C62.3935 48.2933 62.0002 48.78 61.7202 49.42C61.4402 50.06 61.3002 50.82 61.3002 51.7C61.3002 52.5933 61.4402 53.36 61.7202 54C62.0135 54.64 62.4135 55.1267 62.9202 55.46C63.4402 55.7933 64.0468 55.96 64.7402 55.96C65.3802 55.96 65.9335 55.8 66.4002 55.48C66.8668 55.16 67.2935 54.6933 67.6802 54.08C67.7202 54.0133 67.7535 53.98 67.7802 53.98C67.8202 53.9667 67.8735 53.9733 67.9402 54L68.8002 54.32C68.8935 54.36 68.9202 54.4467 68.8802 54.58C68.6802 54.9267 68.4468 55.26 68.1802 55.58C67.9135 55.9 67.6002 56.18 67.2402 56.42C66.8935 56.66 66.5002 56.8533 66.0602 57C65.6202 57.1333 65.1335 57.2 64.6002 57.2C63.6135 57.2 62.7402 56.9733 61.9802 56.52C61.2335 56.0533 60.6468 55.4133 60.2202 54.6C59.7935 53.7733 59.5802 52.82 59.5802 51.74C59.5802 50.6467 59.7935 49.6867 60.2202 48.86C60.6602 48.0333 61.2535 47.3867 62.0002 46.92C62.7602 46.44 63.6268 46.2 64.6002 46.2ZM71.32 57C71.1467 57 71.06 56.9133 71.06 56.74V42.42C71.06 42.2467 71.1333 42.16 71.28 42.16H72.46C72.6067 42.16 72.68 42.24 72.68 42.4V47.74C72.68 47.8067 72.6933 47.8467 72.72 47.86C72.7467 47.8733 72.7933 47.8533 72.86 47.8C73.3267 47.44 73.7533 47.14 74.14 46.9C74.54 46.66 74.9267 46.4867 75.3 46.38C75.6867 46.26 76.1067 46.2 76.56 46.2C77.6 46.2 78.3933 46.48 78.94 47.04C79.4867 47.5867 79.76 48.32 79.76 49.24V56.68C79.76 56.8933 79.66 57 79.46 57H78.34C78.2467 57 78.18 56.98 78.14 56.94C78.1 56.8867 78.08 56.82 78.08 56.74V49.6C78.08 48.9467 77.9133 48.44 77.58 48.08C77.2467 47.7067 76.72 47.52 76 47.52C75.6133 47.52 75.2467 47.5867 74.9 47.72C74.5667 47.84 74.2267 48.02 73.88 48.26C73.5333 48.4867 73.1533 48.78 72.74 49.14V56.7C72.74 56.9 72.6333 57 72.42 57H71.32ZM91.3797 56.58C91.4864 56.74 91.533 56.8533 91.5197 56.92C91.5064 56.9733 91.433 57 91.2997 57H89.8997C89.6997 57 89.5597 56.94 89.4797 56.82L86.6597 52.94C86.593 52.8467 86.533 52.8 86.4797 52.8C86.4397 52.7867 86.3864 52.8333 86.3197 52.94L83.3797 56.82C83.2997 56.94 83.1597 57 82.9597 57H82.0197C81.8864 57 81.793 56.9667 81.7397 56.9C81.6864 56.82 81.733 56.6933 81.8797 56.52L85.5197 51.88C85.5864 51.7867 85.613 51.7133 85.5997 51.66C85.5997 51.5933 85.573 51.52 85.5197 51.44L82.0197 46.72C81.9797 46.6533 81.973 46.5867 81.9997 46.52C82.0397 46.44 82.1064 46.4 82.1997 46.4H83.5397C83.6464 46.4 83.7197 46.4133 83.7597 46.44C83.813 46.4667 83.8664 46.5133 83.9197 46.58L86.6197 50.24C86.7264 50.3867 86.8264 50.3867 86.9197 50.24L89.5397 46.58C89.593 46.5133 89.6464 46.4667 89.6997 46.44C89.753 46.4133 89.833 46.4 89.9397 46.4H90.9797C91.0997 46.4 91.1597 46.4333 91.1597 46.5C91.173 46.5533 91.153 46.6133 91.0997 46.68L87.7197 51.2C87.653 51.28 87.6197 51.3533 87.6197 51.42C87.633 51.4867 87.6664 51.56 87.7197 51.64L91.3797 56.58Z" fill="black"/>
<defs>
<linearGradient id="paint0_linear_766_4" x1="0" y1="50" x2="100" y2="50" gradientUnits="userSpaceOnUse">
<stop stop-color="#5395FF"/>
<stop offset="0.495" stop-color="#A1C4FD"/>
<stop offset="1" stop-color="#C2E9FB"/>
</linearGradient>
</defs>
</svg>
